<svg width="42" height="42" viewBox="0 0 42 42" version="1.1" xmlns="http://www.w3.org/2000/svg" xmlns:xlink="http://www.w3.org/1999/xlink">
<title>add photo</title>
<desc>Created using Figma</desc>
<g id="Canvas" transform="translate(-1132 -863)">
<g id="add photo">
<g id="Oval 2">
<use xlink:href="#path0_fill" transform="translate(1132 863)" fill="#00BABA"/>
</g>
<g id="Shape">
<use xlink:href="#path1_fill" transform="translate(1143.02 876.006)" fill="#FFFFFF"/>
</g>
</g>
</g>
<defs>
<path id="path0_fill" fill-rule="evenodd" d="M 21 42C 32.598 42 42 32.598 42 21C 42 9.40202 32.598 0 21 0C 9.40202 0 0 9.40202 0 21C 0 32.598 9.40202 42 21 42Z"/>
<path id="path1_fill" fill-rule="evenodd" d="M 18.0949 1.88184L 17.1677 1.88391C 16.8864 1.26495 16.6968 0.859924 16.6051 0.6875C 16.603 0.685425 16.601 0.68335 16.601 0.679199C 16.2864 0.0311279 15.6155 0.00830078 15.3779 0L 11.2152 0.00622559C 10.9944 0.0145264 10.3235 0.0394897 10.0172 0.679199C 10.0162 0.681274 10.0152 0.682861 10.0141 0.684387L 10.011 0.689575C 9.89638 0.907715 9.66102 1.42279 9.4485 1.89642L 7.4087 1.90057L 7.4087 1.40826C 7.4087 1.26495 7.29213 1.14862 7.14833 1.14862L 4.36268 1.15277C 4.21901 1.15277 4.10231 1.2691 4.10231 1.41241L 4.10231 1.89642C 5.22951 3.72632 5.85036 6.08801 5.85451 8.64075C 5.85866 11.1582 5.26491 13.4929 4.17518 15.3124L 18.1156 15.2896C 19.3866 15.2875 20.4179 14.2552 20.4158 12.9882L 20.4013 4.17499C 20.4013 2.90796 19.3657 1.87769 18.0949 1.88184ZM 11.3633 1.33557L 15.2343 1.32935L 15.9614 2.90796L 10.6694 2.91626L 11.3633 1.33557ZM 8.4568 3.25275C 8.02968 3.25482 7.68178 3.60168 7.68178 4.0296C 7.68178 4.45746 8.02968 4.80432 8.45888 4.80225C 8.88807 4.80225 9.2361 4.45331 9.2361 4.02545C 9.2361 3.59961 8.886 3.25275 8.4568 3.25275ZM 13.3279 13.8585C 10.6506 13.8626 8.46718 11.6942 8.46303 9.02295C 8.45888 6.35181 10.634 4.17706 13.3113 4.17084C 15.9906 4.16669 18.1741 6.33521 18.1782 9.00635C 18.1845 11.6775 16.0072 13.8543 13.3279 13.8585ZM 9.43397 9.02087C 9.42982 6.88348 11.1694 5.14288 13.3134 5.13873C 15.4552 5.13666 17.2033 6.87311 17.2074 9.00836C 17.2116 11.1437 15.4697 12.8843 13.3259 12.8884C 11.1841 12.8905 9.43812 11.1561 9.43397 9.02087ZM 13.3258 11.9205C 11.7174 11.9226 10.4089 10.6244 10.4069 9.02087C 10.4048 7.41528 11.7069 6.11292 13.3175 6.10876C 14.928 6.10669 16.2343 7.40491 16.2363 9.0105C 16.2385 10.614 14.9363 11.9164 13.3258 11.9205ZM 2.32313 15.3187L 3.02308 15.3166C 4.22731 13.5905 4.88991 11.2289 4.88783 8.64496C 4.88368 6.0257 4.19191 3.6391 2.94813 1.9068L 2.30018 1.90887C 1.68349 1.90887 1.10634 2.14984 0.670912 2.58392C 0.237562 3.01807 -0.00206183 3.5976 1.33668e-05 4.21033L 0.0146618 13.0256C 0.016737 14.2905 1.05214 15.3207 2.32313 15.3187Z"/>
</defs>
</svg>
