<svg width="42" height="42" viewBox="0 0 42 42" version="1.1" xmlns="http://www.w3.org/2000/svg" xmlns:xlink="http://www.w3.org/1999/xlink">
<title>add message</title>
<desc>Created using Figma</desc>
<g id="Canvas" transform="translate(-1050 -863)">
<g id="add message">
<g id="Oval 2">
<use xlink:href="#path0_fill" transform="translate(1050 863)" fill="#00BABA"/>
</g>
<g id="Shape">
<use xlink:href="#path1_fill" transform="translate(1061 875)" fill="#FFFFFF"/>
</g>
</g>
</g>
<defs>
<path id="path0_fill" fill-rule="evenodd" d="M 21 42C 32.598 42 42 32.598 42 21C 42 9.40202 32.598 0 21 0C 9.40202 0 0 9.40202 0 21C 0 32.598 9.40202 42 21 42Z"/>
<path id="path1_fill" fill-rule="evenodd" d="M 7 0L 12 0C 15.7137 0 19 3.09662 19 7C 19 11.2112 15.7137 14.4998 12 14L 10 14L 6 18C 5.36072 18.2058 4.75 18.1445 5 17L 5 15C 4.75 14.5829 4.76166 14.48 5 14C 1.76624 13.4649 0 10.6631 0 7C 0 3.28857 3.28625 0 7 0ZM 4 11L 11 11L 11 10L 4 10L 4 11ZM 15 8L 4 8L 4 7L 15 7L 15 8ZM 4 5L 15 5L 15 4L 4 4L 4 5Z"/>
</defs>
</svg>
